{"extensionsUsed" : ["KHR_materials_unlit", "KHR_texture_transform"], "accessors" : [{"bufferView" : 0, "byteOffset" : 0, "componentType" : 5123, "count" : 2520, "type" : "SCALAR", "max" : [2358], "min" : [0]}, {"bufferView" : 1, "byteOffset" : 0, "componentType" : 5126, "count" : 2359, "type" : "VEC3", "max" : [20, 26, 0.75], "min" : [-32, -31, -0.5], "name" : "POSITION"}, {"bufferView" : 1, "byteOffset" : 12, "componentType" : 5126, "count" : 2359, "type" : "VEC3", "max" : [1.0000044107437134, 1.0000044107437134, 1.0000044107437134], "min" : [-1.0000044107437134, -1.0000044107437134, -1.0000044107437134], "name" : "NORMAL"}, {"bufferView" : 1, "byteOffset" : 24, "componentType" : 5126, "count" : 2359, "type" : "VEC2", "max" : [19.685039520263672, 20.685039520263672], "min" : [-19.685039520263672, -18.685039520263672], "name" : "TEXCOORD_0"}, {"bufferView" : 0, "byteOffset" : 5040, "componentType" : 5123, "count" : 1656, "type" : "SCALAR", "max" : [1644], "min" : [0]}, {"bufferView" : 2, "byteOffset" : 0, "componentType" : 5126, "count" : 1645, "type" : "VEC3", "max" : [19, 16, 0.75], "min" : [-31, -31, -0.5], "name" : "POSITION"}, {"bufferView" : 2, "byteOffset" : 12, "componentType" : 5126, "count" : 1645, "type" : "VEC3", "max" : [1.0000044107437134, 1.0000044107437134, 1.0000044107437134], "min" : [-1.0000044107437134, -1.0000044107437134, -1.0000044107437134], "name" : "NORMAL"}, {"bufferView" : 2, "byteOffset" : 24, "componentType" : 5126, "count" : 1645, "type" : "VEC2", "max" : [19.685039520263672, 20.685039520263672], "min" : [-19.685039520263672, -18.685039520263672], "name" : "TEXCOORD_0"}, {"bufferView" : 0, "byteOffset" : 8352, "componentType" : 5123, "count" : 1368, "type" : "SCALAR", "max" : [1355], "min" : [0]}, {"bufferView" : 3, "byteOffset" : 0, "componentType" : 5126, "count" : 1356, "type" : "VEC3", "max" : [18, 15, 0.75], "min" : [-29, -29, -0.5], "name" : "POSITION"}, {"bufferView" : 3, "byteOffset" : 12, "componentType" : 5126, "count" : 1356, "type" : "VEC3", "max" : [1.0000044107437134, 1.0000044107437134, 1.0000044107437134], "min" : [-1.0000044107437134, -1.0000044107437134, -1.0000044107437134], "name" : "NORMAL"}, {"bufferView" : 3, "byteOffset" : 24, "componentType" : 5126, "count" : 1356, "type" : "VEC2", "max" : [19.685039520263672, 20.685039520263672], "min" : [-19.685039520263672, -18.685039520263672], "name" : "TEXCOORD_0"}, {"bufferView" : 0, "byteOffset" : 11088, "componentType" : 5123, "count" : 1476, "type" : "SCALAR", "max" : [1466], "min" : [0]}, {"bufferView" : 4, "byteOffset" : 0, "componentType" : 5126, "count" : 1467, "type" : "VEC3", "max" : [18, 15, 0.75], "min" : [-22, -30, -0.5], "name" : "POSITION"}, {"bufferView" : 4, "byteOffset" : 12, "componentType" : 5126, "count" : 1467, "type" : "VEC3", "max" : [1.0000044107437134, 1.0000044107437134, 1.0000044107437134], "min" : [-1.0000044107437134, -1.0000044107437134, -1.0000044107437134], "name" : "NORMAL"}, {"bufferView" : 4, "byteOffset" : 24, "componentType" : 5126, "count" : 1467, "type" : "VEC2", "max" : [19.685039520263672, 20.685039520263672], "min" : [-19.685039520263672, -18.685039520263672], "name" : "TEXCOORD_0"}, {"bufferView" : 0, "byteOffset" : 14040, "componentType" : 5123, "count" : 2088, "type" : "SCALAR", "max" : [1939], "min" : [0]}, {"bufferView" : 5, "byteOffset" : 0, "componentType" : 5126, "count" : 1940, "type" : "VEC3", "max" : [16, 15, 0.75], "min" : [-20, -24, -0.5], "name" : "POSITION"}, {"bufferView" : 5, "byteOffset" : 12, "componentType" : 5126, "count" : 1940, "type" : "VEC3", "max" : [1.0000044107437134, 1.0000044107437134, 1.0000044107437134], "min" : [-1.0000044107437134, -1.0000044107437134, -1.0000044107437134], "name" : "NORMAL"}, {"bufferView" : 5, "byteOffset" : 24, "componentType" : 5126, "count" : 1940, "type" : "VEC2", "max" : [19.685039520263672, 20.685039520263672], "min" : [-19.685039520263672, -18.685039520263672], "name" : "TEXCOORD_0"}, {"bufferView" : 0, "byteOffset" : 18216, "componentType" : 5123, "count" : 1980, "type" : "SCALAR", "max" : [1966], "min" : [0]}, {"bufferView" : 6, "byteOffset" : 0, "componentType" : 5126, "count" : 1967, "type" : "VEC3", "max" : [15, 14, 0.75], "min" : [-20, -27, -0.5], "name" : "POSITION"}, {"bufferView" : 6, "byteOffset" : 12, "componentType" : 5126, "count" : 1967, "type" : "VEC3", "max" : [1.0000044107437134, 1.0000044107437134, 1.0000044107437134], "min" : [-1.0000044107437134, -1.0000044107437134, -1.0000044107437134], "name" : "NORMAL"}, {"bufferView" : 6, "byteOffset" : 24, "componentType" : 5126, "count" : 1967, "type" : "VEC2", "max" : [19.685039520263672, 20.685039520263672], "min" : [-19.685039520263672, -18.685039520263672], "name" : "TEXCOORD_0"}, {"bufferView" : 0, "byteOffset" : 22176, "componentType" : 5123, "count" : 1008, "type" : "SCALAR", "max" : [969], "min" : [0]}, {"bufferView" : 7, "byteOffset" : 0, "componentType" : 5126, "count" : 970, "type" : "VEC3", "max" : [17, 14, 0.75], "min" : [-21, -28, -0.5], "name" : "POSITION"}, {"bufferView" : 7, "byteOffset" : 12, "componentType" : 5126, "count" : 970, "type" : "VEC3", "max" : [1.0000044107437134, 1.0000044107437134, 1.0000044107437134], "min" : [-1.0000044107437134, -1.0000044107437134, -1.0000044107437134], "name" : "NORMAL"}, {"bufferView" : 7, "byteOffset" : 24, "componentType" : 5126, "count" : 970, "type" : "VEC2", "max" : [19.685039520263672, 20.685039520263672], "min" : [-19.685039520263672, -18.685039520263672], "name" : "TEXCOORD_0"}, {"bufferView" : 0, "byteOffset" : 24192, "componentType" : 5123, "count" : 2196, "type" : "SCALAR", "max" : [2115], "min" : [0]}, {"bufferView" : 8, "byteOffset" : 0, "componentType" : 5126, "count" : 2116, "type" : "VEC3", "max" : [15, 14, 0.75], "min" : [-18, -31, -0.5], "name" : "POSITION"}, {"bufferView" : 8, "byteOffset" : 12, "componentType" : 5126, "count" : 2116, "type" : "VEC3", "max" : [1.0000044107437134, 1.0000044107437134, 1.0000044107437134], "min" : [-1.0000044107437134, -1.0000044107437134, -1.0000044107437134], "name" : "NORMAL"}, {"bufferView" : 8, "byteOffset" : 24, "componentType" : 5126, "count" : 2116, "type" : "VEC2", "max" : [19.685039520263672, 20.685039520263672], "min" : [-19.685039520263672, -18.685039520263672], "name" : "TEXCOORD_0"}, {"bufferView" : 0, "byteOffset" : 28584, "componentType" : 5123, "count" : 4032, "type" : "SCALAR", "max" : [3978], "min" : [0]}, {"bufferView" : 9, "byteOffset" : 0, "componentType" : 5126, "count" : 3979, "type" : "VEC3", "max" : [16, 13, 0.75], "min" : [-21, -31, -0.5], "name" : "POSITION"}, {"bufferView" : 9, "byteOffset" : 12, "componentType" : 5126, "count" : 3979, "type" : "VEC3", "max" : [1.0000044107437134, 1.0000044107437134, 1.0000044107437134], "min" : [-1.0000044107437134, -1.0000044107437134, -1.0000044107437134], "name" : "NORMAL"}, {"bufferView" : 9, "byteOffset" : 24, "componentType" : 5126, "count" : 3979, "type" : "VEC2", "max" : [19.685039520263672, 20.685039520263672], "min" : [-19.685039520263672, -18.685039520263672], "name" : "TEXCOORD_0"}, {"bufferView" : 0, "byteOffset" : 36648, "componentType" : 5123, "count" : 3348, "type" : "SCALAR", "max" : [3288], "min" : [0]}, {"bufferView" : 10, "byteOffset" : 0, "componentType" : 5126, "count" : 3289, "type" : "VEC3", "max" : [14, 13, 0.75], "min" : [-15, -26, -0.5], "name" : "POSITION"}, {"bufferView" : 10, "byteOffset" : 12, "componentType" : 5126, "count" : 3289, "type" : "VEC3", "max" : [1.0000044107437134, 1.0000044107437134, 1.0000044107437134], "min" : [-1.0000044107437134, -1.0000044107437134, -1.0000044107437134], "name" : "NORMAL"}, {"bufferView" : 10, "byteOffset" : 24, "componentType" : 5126, "count" : 3289, "type" : "VEC2", "max" : [19.685039520263672, 20.685039520263672], "min" : [-19.685039520263672, -18.685039520263672], "name" : "TEXCOORD_0"}, {"bufferView" : 0, "byteOffset" : 43344, "componentType" : 5123, "count" : 3492, "type" : "SCALAR", "max" : [3330], "min" : [0]}, {"bufferView" : 11, "byteOffset" : 0, "componentType" : 5126, "count" : 3331, "type" : "VEC3", "max" : [17, 13, 0.75], "min" : [-17, -31, -0.5], "name" : "POSITION"}, {"bufferView" : 11, "byteOffset" : 12, "componentType" : 5126, "count" : 3331, "type" : "VEC3", "max" : [1.0000044107437134, 1.0000044107437134, 1.0000044107437134], "min" : [-1.0000044107437134, -1.0000044107437134, -1.0000044107437134], "name" : "NORMAL"}, {"bufferView" : 11, "byteOffset" : 24, "componentType" : 5126, "count" : 3331, "type" : "VEC2", "max" : [19.685039520263672, 20.685039520263672], "min" : [-19.685039520263672, -18.685039520263672], "name" : "TEXCOORD_0"}, {"bufferView" : 0, "byteOffset" : 50328, "componentType" : 5123, "count" : 2232, "type" : "SCALAR", "max" : [2083], "min" : [0]}, {"bufferView" : 12, "byteOffset" : 0, "componentType" : 5126, "count" : 2084, "type" : "VEC3", "max" : [13, 12, 0.75], "min" : [-15, -25, -0.5], "name" : "POSITION"}, {"bufferView" : 12, "byteOffset" : 12, "componentType" : 5126, "count" : 2084, "type" : "VEC3", "max" : [1.0000044107437134, 1.0000044107437134, 1.0000044107437134], "min" : [-1.0000044107437134, -1.0000044107437134, -1.0000044107437134], "name" : "NORMAL"}, {"bufferView" : 12, "byteOffset" : 24, "componentType" : 5126, "count" : 2084, "type" : "VEC2", "max" : [19.685039520263672, 20.685039520263672], "min" : [-19.685039520263672, -18.685039520263672], "name" : "TEXCOORD_0"}, {"bufferView" : 0, "byteOffset" : 54792, "componentType" : 5123, "count" : 4068, "type" : "SCALAR", "max" : [4016], "min" : [0]}, {"bufferView" : 13, "byteOffset" : 0, "componentType" : 5126, "count" : 4017, "type" : "VEC3", "max" : [15, 12, 0.75], "min" : [-20, -31, -0.5], "name" : "POSITION"}, {"bufferView" : 13, "byteOffset" : 12, "componentType" : 5126, "count" : 4017, "type" : "VEC3", "max" : [1.0000044107437134, 1.0000044107437134, 1.0000044107437134], "min" : [-1.0000044107437134, -1.0000044107437134, -1.0000044107437134], "name" : "NORMAL"}, {"bufferView" : 13, "byteOffset" : 24, "componentType" : 5126, "count" : 4017, "type" : "VEC2", "max" : [19.685039520263672, 20.685039520263672], "min" : [-19.685039520263672, -18.685039520263672], "name" : "TEXCOORD_0"}, {"bufferView" : 0, "byteOffset" : 62928, "componentType" : 5123, "count" : 468, "type" : "SCALAR", "max" : [467], "min" : [0]}, {"bufferView" : 14, "byteOffset" : 0, "componentType" : 5126, "count" : 468, "type" : "VEC3", "max" : [18, 5, 0.75], "min" : [-30, -31, -0.5], "name" : "POSITION"}, {"bufferView" : 14, "byteOffset" : 12, "componentType" : 5126, "count" : 468, "type" : "VEC3", "max" : [1.0000044107437134, 1.0000044107437134, 1.0000044107437134], "min" : [-1.0000044107437134, -1.0000044107437134, -1.0000044107437134], "name" : "NORMAL"}, {"bufferView" : 14, "byteOffset" : 24, "componentType" : 5126, "count" : 468, "type" : "VEC2", "max" : [19.685039520263672, 20.685039520263672], "min" : [-19.685039520263672, -18.685039520263672], "name" : "TEXCOORD_0"}, {"bufferView" : 0, "byteOffset" : 63864, "componentType" : 5123, "count" : 216, "type" : "SCALAR", "max" : [179], "min" : [0]}, {"bufferView" : 15, "byteOffset" : 0, "componentType" : 5126, "count" : 180, "type" : "VEC3", "max" : [4, -13, 0.75], "min" : [-5, -16, -0.5], "name" : "POSITION"}, {"bufferView" : 15, "byteOffset" : 12, "componentType" : 5126, "count" : 180, "type" : "VEC3", "max" : [1.0000044107437134, 1.0000044107437134, 1.0000044107437134], "min" : [-1.0000044107437134, -1.0000044107437134, -1.0000044107437134], "name" : "NORMAL"}, {"bufferView" : 15, "byteOffset" : 24, "componentType" : 5126, "count" : 180, "type" : "VEC2", "max" : [19.685039520263672, 20.685039520263672], "min" : [-19.685039520263672, -18.685039520263672], "name" : "TEXCOORD_0"}], "asset" : {"generator" : "Aspose.3D 22.3", "version" : "2.0"}, "buffers" : [{"uri" : "data:application/octet-stream;base64,", "byteLength" : 1093096}], "bufferViews" : [{"buffer" : 0, "byteOffset" : 0, "byteLength" : 64296, "target" : 34963}, {"buffer" : 0, "byteOffset" : 64300, "byteLength" : 80640, "byteStride" : 32, "target" : 34962}, {"buffer" : 0, "byteOffset" : 144944, "byteLength" : 52992, "byteStride" : 32, "target" : 34962}, {"buffer" : 0, "byteOffset" : 197940, "byteLength" : 43776, "byteStride" : 32, "target" : 34962}, {"buffer" : 0, "byteOffset" : 241720, "byteLength" : 47232, "byteStride" : 32, "target" : 34962}, {"buffer" : 0, "byteOffset" : 288956, "byteLength" : 66816, "byteStride" : 32, "target" : 34962}, {"buffer" : 0, "byteOffset" : 355776, "byteLength" : 63360, "byteStride" : 32, "target" : 34962}, {"buffer" : 0, "byteOffset" : 419140, "byteLength" : 32256, "byteStride" : 32, "target" : 34962}, {"buffer" : 0, "byteOffset" : 451400, "byteLength" : 70272, "byteStride" : 32, "target" : 34962}, {"buffer" : 0, "byteOffset" : 521676, "byteLength" : 129024, "byteStride" : 32, "target" : 34962}, {"buffer" : 0, "byteOffset" : 650704, "byteLength" : 107136, "byteStride" : 32, "target" : 34962}, {"buffer" : 0, "byteOffset" : 757844, "byteLength" : 111744, "byteStride" : 32, "target" : 34962}, {"buffer" : 0, "byteOffset" : 869592, "byteLength" : 71424, "byteStride" : 32, "target" : 34962}, {"buffer" : 0, "byteOffset" : 941020, "byteLength" : 130176, "byteStride" : 32, "target" : 34962}, {"buffer" : 0, "byteOffset" : 1071200, "byteLength" : 14976, "byteStride" : 32, "target" : 34962}, {"buffer" : 0, "byteOffset" : 1086180, "byteLength" : 6912, "byteStride" : 32, "target" : 34962}], "materials" : [{"name" : "color0", "pbrMetallicRoughness" : {"baseColorFactor" : [0, 0, 0, 1], "metallicFactor" : 0, "roughnessFactor" : 0.5}, "emissiveFactor" : [0, 0, 0], "alphaMode" : "OPAQUE", "doubleSided" : false}, {"name" : "color1", "pbrMetallicRoughness" : {"baseColorFactor" : [0.002731743, 0.001517635, 0.001821162, 1], "metallicFactor" : 0, "roughnessFactor" : 0.5}, "emissiveFactor" : [0, 0, 0], "alphaMode" : "OPAQUE", "doubleSided" : false}, {"name" : "color9", "pbrMetallicRoughness" : {"baseColorFactor" : [0.02415763, 0.00699541, 0.00749903172, 1], "metallicFactor" : 0, "roughnessFactor" : 0.5}, "emissiveFactor" : [0, 0, 0], "alphaMode" : "OPAQUE", "doubleSided" : false}, {"name" : "color8", "pbrMetallicRoughness" : {"baseColorFactor" : [0.008568125, 0.001517635, 0.001214108, 1], "metallicFactor" : 0, "roughnessFactor" : 0.5}, "emissiveFactor" : [0, 0, 0], "alphaMode" : "OPAQUE", "doubleSided" : false}, {"name" : "color14", "pbrMetallicRoughness" : {"baseColorFactor" : [0.102241747, 0.008568125, 0.008023192, 1], "metallicFactor" : 0, "roughnessFactor" : 0.5}, "emissiveFactor" : [0, 0, 0], "alphaMode" : "OPAQUE", "doubleSided" : false}, {"name" : "color11", "pbrMetallicRoughness" : {"baseColorFactor" : [0.1714411, 0.0176419523, 0.0159962922, 1], "metallicFactor" : 0, "roughnessFactor" : 0.5}, "emissiveFactor" : [0, 0, 0], "alphaMode" : "OPAQUE", "doubleSided" : false}, {"name" : "color10", "pbrMetallicRoughness" : {"baseColorFactor" : [0.7529423, 0.08021983, 0.1412633, 1], "metallicFactor" : 0, "roughnessFactor" : 0.5}, "emissiveFactor" : [0, 0, 0], "alphaMode" : "OPAQUE", "doubleSided" : false}, {"name" : "color6", "pbrMetallicRoughness" : {"baseColorFactor" : [0.296138316, 0.0343398079, 0.03071344, 1], "metallicFactor" : 0, "roughnessFactor" : 0.5}, "emissiveFactor" : [0, 0, 0], "alphaMode" : "OPAQUE", "doubleSided" : false}, {"name" : "color4", "pbrMetallicRoughness" : {"baseColorFactor" : [0.760524631, 0.187820762, 0.1980693, 1], "metallicFactor" : 0, "roughnessFactor" : 0.5}, "emissiveFactor" : [0, 0, 0], "alphaMode" : "OPAQUE", "doubleSided" : false}, {"name" : "color12", "pbrMetallicRoughness" : {"baseColorFactor" : [0.9386859, 0.479320228, 0.5840785, 1], "metallicFactor" : 0, "roughnessFactor" : 0.5}, "emissiveFactor" : [0, 0, 0], "alphaMode" : "OPAQUE", "doubleSided" : false}, {"name" : "color5", "pbrMetallicRoughness" : {"baseColorFactor" : [0.391572565, 0.06124607, 0.05951124, 1], "metallicFactor" : 0, "roughnessFactor" : 0.5}, "emissiveFactor" : [0, 0, 0], "alphaMode" : "OPAQUE", "doubleSided" : false}, {"name" : "color13", "pbrMetallicRoughness" : {"baseColorFactor" : [1, 0.6514057, 0.791298032, 1], "metallicFactor" : 0, "roughnessFactor" : 0.5}, "emissiveFactor" : [0, 0, 0], "alphaMode" : "OPAQUE", "doubleSided" : false}, {"name" : "color3", "pbrMetallicRoughness" : {"baseColorFactor" : [0.9646863, 0.25015837, 0.25015837, 1], "metallicFactor" : 0, "roughnessFactor" : 0.5}, "emissiveFactor" : [0, 0, 0], "alphaMode" : "OPAQUE", "doubleSided" : false}, {"name" : "color2", "pbrMetallicRoughness" : {"baseColorFactor" : [0.06124607, 0.048171822, 0.0843762159, 1], "metallicFactor" : 0, "roughnessFactor" : 0.5}, "emissiveFactor" : [0, 0, 0], "alphaMode" : "OPAQUE", "doubleSided" : false}, {"name" : "color7", "pbrMetallicRoughness" : {"baseColorFactor" : [1, 1, 1, 1], "metallicFactor" : 0, "roughnessFactor" : 0.5}, "emissiveFactor" : [0, 0, 0], "alphaMode" : "OPAQUE", "doubleSided" : false}], "meshes" : [{"primitives" : [{"attributes" : {"POSITION" : 1, "NORMAL" : 2, "TEXCOORD_0" : 3}, "indices" : 0, "material" : 0, "mode" : 4}, {"attributes" : {"POSITION" : 5, "NORMAL" : 6, "TEXCOORD_0" : 7}, "indices" : 4, "material" : 1, "mode" : 4}, {"attributes" : {"POSITION" : 9, "NORMAL" : 10, "TEXCOORD_0" : 11}, "indices" : 8, "material" : 2, "mode" : 4}, {"attributes" : {"POSITION" : 13, "NORMAL" : 14, "TEXCOORD_0" : 15}, "indices" : 12, "material" : 3, "mode" : 4}, {"attributes" : {"POSITION" : 17, "NORMAL" : 18, "TEXCOORD_0" : 19}, "indices" : 16, "material" : 4, "mode" : 4}, {"attributes" : {"POSITION" : 21, "NORMAL" : 22, "TEXCOORD_0" : 23}, "indices" : 20, "material" : 5, "mode" : 4}, {"attributes" : {"POSITION" : 25, "NORMAL" : 26, "TEXCOORD_0" : 27}, "indices" : 24, "material" : 6, "mode" : 4}, {"attributes" : {"POSITION" : 29, "NORMAL" : 30, "TEXCOORD_0" : 31}, "indices" : 28, "material" : 7, "mode" : 4}, {"attributes" : {"POSITION" : 33, "NORMAL" : 34, "TEXCOORD_0" : 35}, "indices" : 32, "material" : 8, "mode" : 4}, {"attributes" : {"POSITION" : 37, "NORMAL" : 38, "TEXCOORD_0" : 39}, "indices" : 36, "material" : 9, "mode" : 4}, {"attributes" : {"POSITION" : 41, "NORMAL" : 42, "TEXCOORD_0" : 43}, "indices" : 40, "material" : 10, "mode" : 4}, {"attributes" : {"POSITION" : 45, "NORMAL" : 46, "TEXCOORD_0" : 47}, "indices" : 44, "material" : 11, "mode" : 4}, {"attributes" : {"POSITION" : 49, "NORMAL" : 50, "TEXCOORD_0" : 51}, "indices" : 48, "material" : 12, "mode" : 4}, {"attributes" : {"POSITION" : 53, "NORMAL" : 54, "TEXCOORD_0" : 55}, "indices" : 52, "material" : 13, "mode" : 4}, {"attributes" : {"POSITION" : 57, "NORMAL" : 58, "TEXCOORD_0" : 59}, "indices" : 56, "material" : 14, "mode" : 4}]}], "nodes" : [{"mesh" : 0, "name" : "generated(Clone)"}], "scene" : 0, "scenes" : [{"nodes" : [0]}]}